<?xml version="1.0" encoding="UTF-8"?>
<svg id="Livello_2" data-name="Livello 2" xmlns="http://www.w3.org/2000/svg" viewBox="0 0 305.09 118.04">
  <defs>
    <style>
      .cls-1 {
        fill: none;
        stroke: #000;
        stroke-miterlimit: 10;
        stroke-width: 3px;
      }
    </style>
  </defs>
  <g id="Livello_1-2" data-name="Livello 1">
    <g>
      <path d="M106.68,30.27l-2.13,10.43h-30.65l-2.53,12.09h28.36l-2.05,9.64h-28.36l-2.92,13.82h31.12l-2.21,10.43h-43.53l11.85-56.4h43.05Z"/>
      <path d="M148.24,55.63c0,.95-.16,2.45-.55,4.19l-5.69,26.86h-11.22l4.98-23.86c.24-1.34.71-3.32.71-4.66,0-2.61-2.45-4.58-5.37-4.58-5.85,0-9.95,4.27-11.53,11.77l-4.5,21.33h-11.22l8.53-40.84h10.74l-1.26,5.69h.16c3.63-4.5,8.45-6.79,14.3-6.79,7.74,0,11.93,3.95,11.93,10.9Z"/>
      <path d="M176.76,33.43l-2.53,12.4h8.06l-1.74,7.5h-7.98l-4.11,19.91c-.32,1.58-.4,2.29-.4,2.61,0,1.74,1.03,2.69,3.55,2.69,1.11,0,2.53-.08,4.27-.24l-1.9,8.69c-2.92.32-5.37.4-6.95.4-7.11,0-10.74-2.84-10.74-7.98,0-.55.08-1.97.55-4.11l4.58-21.96h-7.35l1.74-7.5h7.19l2.53-12.4h11.22Z"/>
      <path d="M215.78,44.96l-2.29,10.9c-1.34-.32-3.08-.71-4.74-.71-6.95,0-11.22,4.11-13.19,13.59l-3.79,17.93h-11.22l8.53-40.84h10.66l-1.66,7.19-.08.16.24.16c2.61-5.53,7.82-8.61,14.14-8.61,1.03,0,2.13.08,3.4.24Z"/>
      <path d="M253.31,55.47c0,1.58-.24,4.03-.87,6.87l-3.55,16.12c-.47,1.97-.63,4.74-.63,5.77,0,.95.16,1.58.4,2.45h-11.22v-4.03c-3.08,3.4-7.66,5.13-12.48,5.13-8.22,0-13.27-4.42-13.27-10.74,0-7.74,5.85-12.96,16.35-13.98,3.24-.32,6.71-.63,9.95-1.11,3.24-.47,4.9-1.97,4.9-4.74,0-3.24-3-4.98-7.11-4.98-4.34,0-7.58,2.13-8.29,6h-10.51c1.26-8.85,7.98-13.51,19.43-13.51s16.9,3.79,16.9,10.74ZM228.98,80.27c7.43,0,9.72-4.82,11.69-13.19-1.58,1.03-3.4,1.5-9.16,1.98-5.92.47-8.61,2.45-8.61,6.56,0,2.84,2.29,4.66,6.08,4.66Z"/>
    </g>
    <rect class="cls-1" x="1.5" y="1.5" width="302.09" height="115.04" rx="11.05" ry="11.05"/>
  </g>
</svg>