<?xml version="1.0" encoding="UTF-8"?>
<svg id="Livello_2" data-name="Livello 2" xmlns="http://www.w3.org/2000/svg" viewBox="0 0 1532.91 760.09">
  <g id="Livello_1-2" data-name="Livello 1">
    <g>
      <path d="M15.47,728.45L413.44,99.15l265.06,419.06H252.77c-4.01,3.67-5.93,8.57-8.91,12.92-21.37,31.13-43.1,62.31-64.35,93.78-.77,1.14-2.7,1.67-2.32,3.69h571.28c4.51,4.03,6.34,10.05,9.48,14.95.42.65,1.49.85,2.01,1.66,13.13,20.38,25.48,40.97,38.07,61.62l14.08,21.61H15.47ZM300.23,447.19h228.51l-114.95-180.01-113.56,180.01Z"/>
      <g>
        <path d="M929.27,672.33c6.61,0,9.92,3.31,9.92,9.92v37.03c0,6.28-3.31,9.92-9.92,9.92h-37.03c-6.28,0-9.92-3.64-9.92-9.92v-37.03c0-6.61,3.64-9.92,9.92-9.92h37.03Z"/>
        <path d="M1112.75,497.78c6.61,0,9.92,3.31,9.92,9.92v37.02c0,6.28-3.31,9.92-9.92,9.92h-80c-6.28,0-9.92,3.31-9.92,9.92v10.58c0,6.28,3.64,9.92,9.92,9.92h51.24c6.61,0,9.92,3.31,9.92,9.92v37.02c0,6.28-3.31,9.92-9.92,9.92h-51.24c-6.28,0-9.92,3.31-9.92,9.92v10.58c0,6.28,3.64,9.92,9.92,9.92h80c6.61,0,9.92,3.31,9.92,9.92v37.03c0,6.61-3.31,9.92-9.92,9.92h-138.84c-6.28,0-9.92-3.64-9.92-9.92v-211.57c0-6.61,3.64-9.92,9.92-9.92h138.84Z"/>
        <path d="M1206.63,497.78c5.62,0,9.26,2.31,11.57,7.6l44.96,110.08c1.32,2.97,3.97,2.31,3.97-.99v-106.78c0-6.61,3.64-9.92,9.92-9.92h37.03c6.61,0,9.92,3.31,9.92,9.92v211.57c0,6.28-3.31,9.92-9.92,9.92h-48.6c-5.62,0-9.26-2.31-11.57-7.6l-44.96-110.08c-1.32-2.97-3.97-2.31-3.97.99v106.78c0,6.28-3.31,9.92-9.92,9.92h-37.03c-6.28,0-9.92-3.64-9.92-9.92v-211.57c0-6.61,3.64-9.92,9.92-9.92h48.6Z"/>
        <path d="M1409.94,564.56c0-6.61-3.31-9.92-9.92-9.92h-46.28c-6.28,0-9.92-3.64-9.92-9.92v-37.02c0-6.61,3.64-9.92,9.92-9.92h169.26c6.61,0,9.92,3.31,9.92,9.92v37.02c0,6.28-3.31,9.92-9.92,9.92h-46.28c-6.28,0-9.92,3.31-9.92,9.92v154.71c0,6.28-3.31,9.92-9.92,9.92h-37.03c-6.28,0-9.92-3.64-9.92-9.92v-154.71Z"/>
      </g>
    </g>
  </g>
</svg>