<?xml version="1.0" encoding="UTF-8"?>
<svg id="Livello_2" data-name="Livello 2" xmlns="http://www.w3.org/2000/svg" viewBox="0 0 350.62 350.62">
  <defs>
    <style>
      .cls-1, .cls-2, .cls-3, .cls-4 {
        fill: none;
        stroke: #000;
        stroke-miterlimit: 10;
      }

      .cls-2 {
        stroke-width: 2px;
      }

      .cls-3 {
        stroke-width: 4px;
      }

      .cls-4 {
        stroke-width: 3px;
      }
    </style>
  </defs>
  <g id="foto_video" data-name="foto&amp;amp;video">
    <path d="M287.65,6c31.41,0,56.97,25.56,56.97,56.97v224.68c0,31.41-25.56,56.97-56.97,56.97H62.97c-31.41,0-56.97-25.56-56.97-56.97V62.97C6,31.56,31.56,6,62.97,6h224.68M287.65,0H62.97C28.19,0,0,28.19,0,62.97v224.68c0,34.78,28.19,62.97,62.97,62.97h224.68c34.78,0,62.97-28.19,62.97-62.97V62.97c0-34.78-28.19-62.97-62.97-62.97h0Z"/>
    <path class="cls-4" d="M271.33,209.36c-8.97-7.91-20.75-12.72-33.65-12.72s-24.68,4.8-33.66,12.72c-10.57,9.32-17.25,22.98-17.25,38.19,0,22.73,14.9,41.98,35.47,48.52,4.87,1.55,10.05,2.39,15.43,2.39s10.56-.83,15.43-2.39c20.57-6.53,35.47-25.79,35.47-48.52,0-15.21-6.67-28.86-17.25-38.19ZM237.68,289.77c-23.32,0-42.22-18.9-42.22-42.22,0-16.87,9.89-31.42,24.18-38.19,5.47-2.59,11.59-4.04,18.04-4.04s12.57,1.45,18.04,4.04c14.3,6.77,24.18,21.32,24.18,38.19,0,23.32-18.9,42.22-42.22,42.22Z"/>
    <path class="cls-3" d="M222.25,296.06h-72.35c-1.3,0-2.35-1.05-2.35-2.35v-82.01c0-1.3,1.05-2.35,2.35-2.35h54.12c-10.57,9.32-17.25,22.98-17.25,38.19,0,22.73,14.9,41.98,35.47,48.52Z"/>
    <path class="cls-3" d="M305.08,211.7v82.01c0,1.3-1.05,2.35-2.34,2.35h-49.63c20.57-6.53,35.47-25.79,35.47-48.52,0-15.21-6.67-28.86-17.25-38.19h31.41c1.29,0,2.34,1.05,2.34,2.35Z"/>
    <path class="cls-2" d="M281.95,201.29h8.25c1.75,0,3.16,1.42,3.16,3.16v1.13h-14.58v-1.13c0-1.75,1.42-3.16,3.16-3.16Z"/>
    <path class="cls-2" d="M256.23,247.54c0,10.25-8.31,18.55-18.55,18.55s-18.55-8.31-18.55-18.55c0-7.41,4.34-13.81,10.63-16.78,2.4-1.14,5.09-1.77,7.93-1.77s5.52.64,7.93,1.77c6.28,2.97,10.63,9.37,10.63,16.78Z"/>
    <path class="cls-2" d="M152.15,215.09h8.05c7.54,0,13.66,6.12,13.66,13.66v49.58c0,7.54-6.12,13.66-13.66,13.66h-8.05v-76.91h0Z"/>
    <circle class="cls-1" cx="217.22" cy="220.91" r="4.07"/>
    <circle class="cls-1" cx="212.73" cy="227.02" r="2.04"/>
    <rect class="cls-3" x="55.78" y="78.33" width="129.13" height="73.68" rx="18.33" ry="18.33"/>
    <polygon class="cls-3" points="185.17 124.93 214.76 140.21 214.76 90.13 185.17 105.41 185.17 124.93"/>
    <circle class="cls-3" cx="143.08" cy="52.89" r="24.2"/>
    <circle class="cls-3" cx="94.69" cy="52.89" r="24.2"/>
    <rect class="cls-2" x="76.48" y="117.04" width="39" height="17.61"/>
  </g>
</svg>