<?xml version="1.0" encoding="UTF-8"?>
<svg id="Livello_2" data-name="Livello 2" xmlns="http://www.w3.org/2000/svg" viewBox="0 0 350.62 350.62">
  <defs>
    <style>
      .cls-1 {
        letter-spacing: 0em;
      }

      .cls-2 {
        fill: #fff;
        font-family: MyriadPro-Regular, 'Myriad Pro';
        font-size: 100.58px;
      }

      .cls-3 {
        letter-spacing: 0em;
      }

      .cls-4 {
        font-family: BelyDisplay-Regular, 'Bely Display';
        font-size: 57.74px;
      }

      .cls-5 {
        font-family: PalatinoLinotype-Roman, 'Palatino Linotype';
        font-size: 127.31px;
      }
    </style>
  </defs>
  <g id="logo_visual" data-name="logo&amp;amp;visual">
    <path d="M287.65,7c30.86,0,55.97,25.11,55.97,55.97v224.68c0,30.86-25.11,55.97-55.97,55.97H62.97c-30.86,0-55.97-25.11-55.97-55.97V62.97C7,32.11,32.11,7,62.97,7h224.68M287.65,0H62.97C28.19,0,0,28.19,0,62.97v224.68c0,34.78,28.19,62.97,62.97,62.97h224.68c34.78,0,62.97-28.19,62.97-62.97V62.97c0-34.78-28.19-62.97-62.97-62.97h0Z"/>
    <text class="cls-5" transform="translate(23.38 118.94)"><tspan x="0" y="0">A</tspan></text>
    <circle cx="111.65" cy="250.64" r="65.54"/>
    <text class="cls-2" transform="translate(56.05 276.38)"><tspan class="cls-1" x="0" y="0">A</tspan><tspan class="cls-3" x="61.96" y="0">a</tspan></text>
    <g>
      <path d="M184.33,159.29l-5.13,14.89h-6.6l16.79-47.34h7.7l16.86,47.34h-6.82l-5.28-14.89h-17.52ZM200.53,154.52l-4.84-13.63c-1.1-3.09-1.83-5.9-2.57-8.64h-.15c-.73,2.81-1.54,5.69-2.49,8.57l-4.84,13.7h14.88Z"/>
      <g>
        <path d="M275.06,144.33c-4.4,0-8.5,2.88-9.82,7.59-.15.7-.37,1.55-.37,2.53v6.11c0,.77.15,1.55.29,2.25,1.25,4.28,4.98,7.23,9.68,7.23,6.74,0,10.78-5.27,10.78-13.07,0-6.81-3.67-12.64-10.56-12.64Z"/>
        <path d="M255.04,114.8c-24.23,0-43.86,18.82-43.86,42.03s19.64,42.03,43.86,42.03,43.86-18.82,43.86-42.03-19.64-42.03-43.86-42.03ZM242.8,174.18l-.51-4.28h-.22c-1.98,2.67-5.79,5.06-10.85,5.06-7.18,0-10.85-4.85-10.85-9.76,0-8.22,7.62-12.71,21.33-12.64v-.7c0-2.81-.81-7.87-8.06-7.87-3.3,0-6.74.98-9.24,2.53l-1.47-4.07c2.93-1.83,7.18-3.02,11.66-3.02,10.85,0,13.49,7.09,13.49,13.91v12.71c0,2.95.15,5.83.59,8.15h-5.86ZM276.15,174.96c-5.13,0-9.24-1.9-11.88-6.39h-.22l-.29,5.62h-5.57c.15-2.32.29-5.76.29-8.78v-41.09h6.38v21.35h.15c2.27-3.79,6.38-6.25,12.1-6.25,8.8,0,15.03,7.02,14.95,17.35,0,12.15-7.99,18.19-15.91,18.19Z"/>
        <path d="M226.82,164.49c0,4,2.79,5.9,6.08,5.9,4.62,0,7.55-2.81,8.58-5.69.22-.63.37-1.33.37-1.97v-5.9c-7.04-.14-15.03,1.05-15.03,7.66Z"/>
      </g>
      <path d="M327.84,172.92c-1.69.84-5.42,1.97-10.19,1.97-10.7,0-17.67-6.95-17.67-17.35s7.48-18.05,19.06-18.05c3.81,0,7.18.91,8.94,1.76l-1.47,4.78c-1.54-.84-3.96-1.62-7.48-1.62-8.14,0-12.54,5.76-12.54,12.85,0,7.87,5.28,12.71,12.32,12.71,3.67,0,6.08-.91,7.92-1.69l1.1,4.64Z"/>
    </g>
    <text class="cls-4" transform="translate(126.59 118.94)"><tspan x="0" y="0">a</tspan></text>
  </g>
</svg>