<?xml version="1.0" encoding="UTF-8"?>
<svg id="Livello_2" data-name="Livello 2" xmlns="http://www.w3.org/2000/svg" viewBox="0 0 350.62 350.62">
  <g id="sitoweb">
    <path d="M287.65,7c30.86,0,55.97,25.11,55.97,55.97v224.68c0,30.86-25.11,55.97-55.97,55.97H62.97c-30.86,0-55.97-25.11-55.97-55.97V62.97C7,32.11,32.11,7,62.97,7h224.68M287.65,0H62.97C28.19,0,0,28.19,0,62.97v224.68c0,34.78,28.19,62.97,62.97,62.97h224.68c34.78,0,62.97-28.19,62.97-62.97V62.97c0-34.78-28.19-62.97-62.97-62.97h0Z"/>
    <g>
      <path d="M129.02,143.67l-6.81,4.13-19.68,52.53h-3.98l-11.87-36.6-13.78,36.6h-3.98l-20.14-52.53-6.05-4.13h32.08l-7.96,4.13,11.94,32.85,5.97-22.74-4.06-12.4,16.69-2.99,11.41,37.37,7.58-32.08-9.11-4.13h21.75Z"/>
      <path d="M215.31,143.67l-6.81,4.13-19.68,52.53h-3.98l-11.87-36.6-13.78,36.6h-3.98l-20.14-52.53-6.05-4.13h32.08l-7.96,4.13,11.94,32.85,5.97-22.74-4.06-12.4,16.69-2.99,11.41,37.37,7.58-32.08-9.11-4.13h21.75Z"/>
      <path d="M301.61,143.67l-6.81,4.13-19.68,52.53h-3.98l-11.87-36.6-13.78,36.6h-3.98l-20.14-52.53-6.05-4.13h32.08l-7.96,4.13,11.94,32.85,5.97-22.74-4.06-12.4,16.69-2.99,11.41,37.37,7.58-32.08-9.11-4.13h21.75Z"/>
      <path d="M296.25,192.52c0-4.59,2.91-7.43,7.35-7.43s7.35,2.83,7.35,7.43-2.91,7.43-7.35,7.43-7.35-2.83-7.35-7.43Z"/>
    </g>
  </g>
</svg>