<?xml version="1.0" encoding="UTF-8"?>
<svg id="Livello_2" data-name="Livello 2" xmlns="http://www.w3.org/2000/svg" viewBox="0 0 350.62 350.62">
  <g id="socialmm">
    <path d="M287.65,7c30.86,0,55.97,25.11,55.97,55.97v224.68c0,30.86-25.11,55.97-55.97,55.97H62.97c-30.86,0-55.97-25.11-55.97-55.97V62.97C7,32.11,32.11,7,62.97,7h224.68M287.65,0H62.97C28.19,0,0,28.19,0,62.97v224.68c0,34.78,28.19,62.97,62.97,62.97h224.68c34.78,0,62.97-28.19,62.97-62.97V62.97c0-34.78-28.19-62.97-62.97-62.97h0Z"/>
    <path d="M148.64,68.88c8.61,0,15.61,7,15.61,15.61v79.21c0,8.61-7,15.61-15.61,15.61h-79.21c-8.61,0-15.61-7-15.61-15.61v-79.21c0-8.61,7-15.61,15.61-15.61h79.21M148.64,60.88h-79.21c-13.04,0-23.61,10.57-23.61,23.61v79.21c0,13.04,10.57,23.61,23.61,23.61h79.21c13.04,0,23.61-10.57,23.61-23.61v-79.21c0-13.04-10.57-23.61-23.61-23.61h0Z"/>
    <path d="M109.03,94.78c16.16,0,29.31,13.15,29.31,29.31s-13.15,29.31-29.31,29.31-29.31-13.15-29.31-29.31,13.15-29.31,29.31-29.31M109.03,88.12c-19.86,0-35.97,16.1-35.97,35.97s16.1,35.97,35.97,35.97,35.97-16.1,35.97-35.97-16.1-35.97-35.97-35.97h0Z"/>
    <circle cx="147.78" cy="85.32" r="6.35"/>
    <path d="M261.73,306.02v-65.74h22.26l3.58-26.71h-25.83v-17.89s-.79-11.13,12.92-10.73l13.71.4v-24.67l-21.21-.61c-5.97-.17-11.92,1.07-17.26,3.77-6.93,3.51-14.33,9.69-14.72,21.29-.75,22.46-.87,28.84-.87,28.84l-22.53-.32-.42,26.64h23.47l-.12,65.74h27.03Z"/>
  </g>
</svg>